<svg width="141" height="155" viewBox="0 0 141 155" fill="none" xmlns="http://www.w3.org/2000/svg">
<path d="M0 155L64.8945 88.9735C69.3502 84.0666 73.159 79.8091 76.3211 76.2011C79.6269 72.4488 82.1422 68.8408 83.867 65.3771C85.5917 61.9134 86.4541 58.2332 86.4541 54.3366C86.4541 52.4604 86.1667 50.6564 85.5917 48.9246C85.0168 47.1927 84.0826 45.6774 82.789 44.3785C81.4954 43.0796 79.8425 42.0694 77.8303 41.3478C75.9618 40.4818 73.6621 40.0489 70.9312 40.0489C67.3379 40.0489 64.1758 41.0591 61.445 43.0796C58.7141 44.9558 56.5581 47.5535 54.9771 50.8729C53.5398 54.1923 52.8211 57.8724 52.8211 61.9134H6.46789C6.46789 51.0894 8.91131 40.987 13.7982 31.6061C18.685 22.2253 26.0153 14.6485 35.789 8.8757C45.7064 2.95857 57.9954 0 72.656 0C82.5734 0 91.4128 1.4432 99.1743 4.3296C107.08 7.07169 113.691 10.8962 119.009 15.8031C124.471 20.5656 128.567 25.9777 131.298 32.0391C134.173 38.1006 135.61 44.3785 135.61 50.8729C135.61 59.2435 133.526 66.676 129.358 73.1704C125.19 79.5205 119.656 85.3655 112.757 90.7053L85.5917 111.704H141V155H0Z" fill="url(#paint0_radial_27_1991)"/>
<defs>
<radialGradient id="paint0_radial_27_1991" cx="0" cy="0" r="1" gradientTransform="matrix(134.037 155 -141 514.829 0 0)" gradientUnits="userSpaceOnUse">
<stop stop-color="#208AE4"/>
<stop offset="1" stop-color="#1C2776"/>
</radialGradient>
</defs>
</svg>
