<svg width="129" height="157" viewBox="0 0 129 157" fill="none" xmlns="http://www.w3.org/2000/svg">
<path d="M52.7921 81.1701V62.1592C56.4818 62.1592 59.8878 61.732 63.0099 60.8776C66.2739 60.0231 69.0413 58.8127 71.3119 57.2463C73.7244 55.6798 75.5693 53.8998 76.8465 51.9061C78.1238 49.9125 78.7624 47.8476 78.7624 45.7116C78.7624 43.8603 78.2657 42.2227 77.2723 40.7986C76.2789 39.3746 74.7888 38.3066 72.802 37.5946C70.9571 36.7401 68.4736 36.3129 65.3515 36.3129C60.5264 36.3129 56.6238 37.6658 53.6436 40.3714C50.6634 43.0771 49.1733 46.6372 49.1733 51.0517H6.38614C6.38614 41.5107 8.79868 32.8952 13.6238 25.2054C18.4488 17.5156 25.2607 11.3923 34.0594 6.83537C43 2.27846 53.5016 0 65.5644 0C78.3366 0 89.1221 1.85125 97.9208 5.55375C106.719 9.25624 113.389 14.3116 117.931 20.7197C122.472 27.1279 124.743 34.3905 124.743 42.5075C124.743 52.0485 121.479 59.6671 114.95 65.3633C108.422 70.917 99.6947 74.9755 88.7673 77.5388C77.9818 79.9596 65.9901 81.1701 52.7921 81.1701ZM63.4356 157C53.3597 157 44.3482 155.434 36.401 152.301C28.5957 149.168 21.9967 144.896 16.604 139.484C11.2112 134.073 7.09571 128.021 4.25742 121.328C1.41914 114.493 0 107.515 0 100.395H45.9802C45.9802 105.379 46.9026 109.366 48.7475 112.356C50.7343 115.347 53.2178 117.483 56.198 118.765C59.3201 120.046 62.4422 120.687 65.5644 120.687C68.8284 120.687 71.7376 120.331 74.2921 119.619C76.9884 118.765 79.1172 117.341 80.6782 115.347C82.2393 113.211 83.0198 110.363 83.0198 106.803C83.0198 104.667 82.5231 102.602 81.5297 100.608C80.5363 98.4721 78.9043 96.6209 76.6337 95.0544C74.363 93.3456 71.2409 92.0639 67.2673 91.2095C63.4356 90.2127 58.6106 89.7143 52.7921 89.7143V67.4993C64.2871 67.4993 74.6469 68.3537 83.8713 70.0626C93.2376 71.629 101.256 74.1923 107.926 77.7524C114.738 81.3125 119.917 85.8694 123.465 91.4231C127.155 96.8345 129 103.385 129 111.075C129 119.904 126.446 127.807 121.337 134.785C116.37 141.62 108.99 147.032 99.198 151.019C89.5479 155.006 77.6271 157 63.4356 157Z" fill="url(#paint0_radial_27_1996)"/>
<defs>
<radialGradient id="paint0_radial_27_1996" cx="0" cy="0" r="1" gradientTransform="matrix(122.63 157 -129 521.472 0 0)" gradientUnits="userSpaceOnUse">
<stop stop-color="#208AE4"/>
<stop offset="1" stop-color="#1C2776"/>
</radialGradient>
</defs>
</svg>
